<svg xmlns="http://www.w3.org/2000/svg" viewBox="0 0 64 64" width="64" height="64">
  <defs>
    <linearGradient id="grad" x1="0%" y1="0%" x2="0%" y2="100%">
      <stop offset="0%" style="stop-color:#E94B3C;stop-opacity:1" />
      <stop offset="50%" style="stop-color:#FFCE00;stop-opacity:1" />
      <stop offset="100%" style="stop-color:#007749;stop-opacity:1" />
    </linearGradient>
  </defs>
  <circle cx="32" cy="32" r="30" fill="white" />
  <path d="M42,18c-2.5-2.5-5.9-4-9.8-4c-7.7,0-14,6.3-14,14c0,7.7,6.3,14,14,14c3.9,0,7.3-1.5,9.8-4h-9.8v-7h16v3.5
    c0,6.1-5,11.5-16,11.5c-11,0-20-7.4-20-18c0-10.6,9-18,20-18c5.8,0,10.5,2,14,5.5L42,18z" fill="url(#grad)" />
  <line x1="16" y1="32" x2="48" y2="32" stroke="white" stroke-width="2" />
</svg>